I Melt with You (2011) 1080p MKV x264 AC3+DTS Eng NL Subs
.
[IMG]http://img141.imageshack.us/img141/5427/aamfbaadm.jpg[/IMG]
.
Verenigde Staten
Thriller
125 minuten

geregisseerd door Mark Pellington
met Thomas Jane, Jeremy Piven en Rob Lowe

Vier vrienden komen elk jaar samen om hun vriendschap te vieren. Dit jaar worden ze echter onverwacht herinnerd aan een belofte die ze elkaar 25 jaar geleden hebben gemaakt. Ze bestuderen de keuzes die ze gemaakt hebben en komen tot het besef dat wat ze zeiden dat ze gingen doen met hun leven en dat wat ze uiteindelijk gedaan hebben volledig van elkaar verschilt. Als reactie hernieuwen ze het pact dat ze toentertijd sloten en zweren plechtig te leven, te sterven en te doden bij dit pactà
. 
http://www.moviemeter.nl/film/72367
.
PLOT
.
When four 40-something college friends meet up for their annual reunion, things start to spiral out of control, and a pact they made as young men is revisited. 
. 
http://www.imdb.com/title/tt1691920/
.
INFO
.
Format                           : Matroska
Format version                   : Version 2
File size                        : 9.30 GiB
Duration                         : 2h 2mn
Overall bit rate                 : 10.9 Mbps
Encoded date                     : UTC 2012-02-25 22:28:47
Writing application              : mkvmerge v3.3.0 ('Language') built on Mar 24 2010 14:59:24
Writing library                  : libebml v0.8.0 + libmatroska v0.9.0

Video
ID                               : 1
Format                           : AVC
Format/Info                      : Advanced Video Codec
Format profile                   : High@L4.1
Format settings, CABAC           : Yes
Format settings, ReFrames        : 5 frames
Codec ID                         : V_MPEG4/ISO/AVC
Duration                         : 2h 2mn
Bit rate                         : 8 715 Kbps
Width                            : 1 920 pixels
Height                           : 824 pixels
Display aspect ratio             : 2.35:1
Frame rate                       : 23.976 fps
Color space                      : YUV
Chroma subsampling               : 4:2:0
Bit depth                        : 8 bits
Scan type                        : Progressive
Bits/(Pixel*Frame)               : 0.230
Stream size                      : 7.27 GiB (78%)
Writing library                  : x264 core 120 r2164 da19765
Encoding settings                : cabac=1 / ref=5 / deblock=1:0:0 / analyse=0x3:0x113 / me=umh / subme=8 / psy=1 / psy_rd=1.00:0.00 / mixed_ref=1 / me_range=16 / chroma_me=1 / trellis=1 / 8x8dct=1 / cqm=0 / deadzone=21,11 / fast_pskip=1 / chroma_qp_offset=-2 / threads=12 / sliced_threads=0 / nr=0 / decimate=1 / interlaced=0 / bluray_compat=0 / constrained_intra=0 / bframes=3 / b_pyramid=2 / b_adapt=2 / b_bias=0 / direct=3 / weightb=1 / open_gop=0 / weightp=2 / keyint=240 / keyint_min=24 / scenecut=40 / intra_refresh=0 / rc_lookahead=50 / rc=2pass / mbtree=1 / bitrate=8715 / ratetol=1.0 / qcomp=0.60 / qpmin=0 / qpmax=69 / qpstep=4 / cplxblur=20.0 / qblur=0.5 / ip_ratio=1.40 / aq=1:1.00
Language                         : English
Default                          : Yes
Forced                           : No

Audio #1
ID                               : 2
Format                           : DTS
Format/Info                      : Digital Theater Systems
Codec ID                         : A_DTS
Duration                         : 2h 2mn
Bit rate mode                    : Constant
Bit rate                         : 1 510 Kbps
Channel(s)                       : 6 channels
Channel positions                : Front: L C R, Side: L R, LFE
Sampling rate                    : 48.0 KHz
Bit depth                        : 24 bits
Compression mode                 : Lossy
Delay relative to video          : 11ms
Stream size                      : 1.29 GiB (14%)
Title                            : Engels DTS
Language                         : English
Default                          : No
Forced                           : No

Audio #2
ID                               : 3
Format                           : AC-3
Format/Info                      : Audio Coding 3
Mode extension                   : CM (complete main)
Codec ID                         : A_AC3
Duration                         : 2h 2mn
Bit rate mode                    : Constant
Bit rate                         : 640 Kbps
Channel(s)                       : 6 channels
Channel positions                : Front: L C R, Side: L R, LFE
Sampling rate                    : 48.0 KHz
Bit depth                        : 16 bits
Compression mode                 : Lossy
Stream size                      : 561 MiB (6%)
Title                            : Engels DD5.1
Language                         : English
Default                          : Yes
Forced                           : No

Text #1
ID                               : 4
Format                           : UTF-8
Codec ID                         : S_TEXT/UTF8
Codec ID/Info                    : UTF-8 Plain Text
Title                            : Nederlands QoQ-Team
Language                         : Dutch
Default                          : Yes
Forced                           : Yes

Text #2
ID                               : 5
Format                           : UTF-8
Codec ID                         : S_TEXT/UTF8
Codec ID/Info                    : UTF-8 Plain Text
Title                            : Engels
Language                         : English
Default                          : No
Forced                           : No

Menu
00:00:00.000                     : en:00:00:00.000
00:08:59.789                     : en:00:08:59.789
00:17:52.571                     : en:00:17:52.571
00:23:58.937                     : en:00:23:58.937
00:33:52.948                     : en:00:33:52.948
00:38:24.427                     : en:00:38:24.427
00:44:54.317                     : en:00:44:54.317
00:50:54.885                     : en:00:50:54.885
00:59:06.793                     : en:00:59:06.793
01:04:24.694                     : en:01:04:24.694
01:14:44.730                     : en:01:14:44.730
01:21:58.247                     : en:01:21:58.247
01:28:31.348                     : en:01:28:31.348
01:32:57.405                     : en:01:32:57.405
01:45:28.405                     : en:01:45:28.405
01:57:52.899                     : en:01:57:52.899
.
Enjoy
